<?xml version="1.0" encoding="utf-8"?>
<!-- Generator: Adobe Illustrator 24.0.0, SVG Export Plug-In . SVG Version: 6.00 Build 0)  -->
<svg version="1.1" id="Camada_2" xmlns="http://www.w3.org/2000/svg" xmlns:xlink="http://www.w3.org/1999/xlink" x="0px" y="0px"
	 viewBox="0 0 316 332" style="enable-background:new 0 0 316 332;" xml:space="preserve">
<style type="text/css">
	.st0{fill:#EDF3FF;stroke:#2B1172;stroke-linecap:round;stroke-linejoin:round;stroke-miterlimit:10;}
	.st1{fill:#D9E7FF;stroke:#2B1172;stroke-linecap:round;stroke-linejoin:round;stroke-miterlimit:10;}
	.st2{fill:#AFCDFF;stroke:#2B1172;stroke-linecap:round;stroke-linejoin:round;stroke-miterlimit:10;}
	.st3{fill:#AFCCFF;stroke:#2B1172;stroke-linecap:round;stroke-linejoin:round;stroke-miterlimit:10;}
	.st4{fill:#81ABFF;stroke:#2B1172;stroke-linecap:round;stroke-linejoin:round;stroke-miterlimit:10;}
	.st5{fill:#364CC7;stroke:#2B1172;stroke-linecap:round;stroke-linejoin:round;stroke-miterlimit:10;}
	.st6{fill:#466CE3;stroke:#2B1172;stroke-linecap:round;stroke-linejoin:round;stroke-miterlimit:10;}
	.st7{fill:#5C8BF7;stroke:#2B1172;stroke-linecap:round;stroke-linejoin:round;stroke-miterlimit:10;}
	.st8{fill:#2A2CA5;stroke:#2B1172;stroke-linecap:round;stroke-linejoin:round;stroke-miterlimit:10;}
	.st9{fill:#322083;stroke:#2B1172;stroke-linecap:round;stroke-linejoin:round;stroke-miterlimit:10;}
	.st10{fill:#AFCBFF;stroke:#2B1172;stroke-linecap:round;stroke-linejoin:round;stroke-miterlimit:10;}
	.st11{fill:#D1E1FF;stroke:#2B1172;stroke-linecap:round;stroke-linejoin:round;stroke-miterlimit:10;}
	.st12{fill:#B0CCFF;stroke:#2B1172;stroke-linecap:round;stroke-linejoin:round;stroke-miterlimit:10;}
	.st13{fill:#ABC8FF;stroke:#2B1172;stroke-linecap:round;stroke-linejoin:round;stroke-miterlimit:10;}
	.st14{fill:#557FEE;stroke:#2B1172;stroke-linecap:round;stroke-linejoin:round;stroke-miterlimit:10;}
	.st15{fill:#DAE8FF;stroke:#2B1172;stroke-linecap:round;stroke-linejoin:round;stroke-miterlimit:10;}
	.st16{fill:#ABCAFF;stroke:#2B1172;stroke-linecap:round;stroke-linejoin:round;stroke-miterlimit:10;}
	.st17{fill:#2F0865;stroke:#2B1172;stroke-linecap:round;stroke-linejoin:round;stroke-miterlimit:10;}
	.st18{fill:#2A004C;stroke:#2B1172;stroke-linecap:round;stroke-linejoin:round;stroke-miterlimit:10;}
	.st19{fill:#75A0FC;stroke:#2B1172;stroke-linecap:round;stroke-linejoin:round;stroke-miterlimit:10;}
</style>
<polygon class="st0" points="275.5,104.2 256,69.4 246.6,75.1 265.7,104.2 "/>
<polygon class="st1" points="259.6,126.4 265.7,104.2 246.6,75.1 234.6,87.2 "/>
<polygon class="st2" points="275.5,166.1 269.7,143.3 259.6,143.3 265.7,166.1 "/>
<polygon class="st1" points="234.6,292.3 246.6,279.9 190,249.5 182.1,272.4 "/>
<polygon class="st0" points="256,273.8 209.1,238 190,249.5 246.6,279.9 "/>
<polygon class="st3" points="229.7,295.3 234.6,292.3 182.1,272.4 182.1,277 "/>
<polygon class="st4" points="190,295.3 182.1,277 229.7,295.3 "/>
<polygon class="st1" points="246.6,195.8 256,202.1 209.1,238 190,226.3 "/>
<polygon class="st0" points="265.7,166.1 246.6,195.8 256,202.1 275.5,166.1 "/>
<polygon class="st1" points="234.6,183.5 259.6,143.3 265.7,166.1 246.6,195.8 "/>
<polygon class="st0" points="275.5,104.2 282.6,104.2 288.6,126.4 288.6,143.3 282.6,166.1 275.5,166.1 269.7,143.3 269.7,126.4 "/>
<polygon class="st1" points="265.7,104.2 259.6,126.4 269.7,126.4 275.5,104.2 "/>
<rect x="259.6" y="126.4" class="st1" width="10.1" height="16.9"/>
<rect x="253" y="126.4" class="st5" width="6.7" height="16.9"/>
<polygon class="st6" points="229.7,91 234.6,87.2 259.6,126.4 253,126.4 "/>
<polygon class="st7" points="182.1,67.5 181.4,72.3 229.7,91 234.6,87.2 "/>
<polygon class="st6" points="190,104.2 181.4,72.3 229.7,91 253,126.4 "/>
<polygon class="st8" points="190,166.1 190,104.2 253,126.4 253,143.3 "/>
<polygon class="st9" points="181.4,199.7 190,166.1 253,143.3 229.7,180.2 "/>
<polygon class="st1" points="234.6,183.5 229.7,180.2 253,143.3 259.6,143.3 "/>
<polygon class="st10" points="183.1,203.7 181.4,199.7 229.7,180.2 234.6,183.5 "/>
<polygon class="st11" points="190,226.3 183.1,203.7 234.6,183.5 246.6,195.8 "/>
<polygon class="st1" points="190,44.9 209.1,33.6 256,69.4 246.6,75.1 "/>
<polygon class="st11" points="182.1,67.5 190,44.9 246.6,75.1 234.6,87.2 "/>
<polygon class="st12" points="40.5,104.2 60,69.4 69.4,75.1 50.2,104.2 "/>
<polygon class="st4" points="56.3,126.4 50.2,104.2 69.4,75.1 81.4,87.2 "/>
<polygon class="st4" points="40.5,166.1 46.2,143.3 56.3,143.3 50.2,166.1 "/>
<polygon class="st4" points="81.4,292.3 69.4,279.9 126,249.5 133.9,272.4 "/>
<polygon class="st13" points="60,273.8 106.9,238 126,249.5 69.4,279.9 "/>
<polygon class="st14" points="86.2,295.3 81.4,292.3 133.9,272.4 133.9,277 "/>
<polygon class="st6" points="126,295.3 133.9,277 86.2,295.3 "/>
<polygon class="st1" points="69.4,195.8 60,202.1 106.9,238 126,226.3 "/>
<polygon class="st12" points="50.2,166.1 69.4,195.8 60,202.1 40.5,166.1 "/>
<polygon class="st4" points="81.4,183.5 56.3,143.3 50.2,166.1 69.4,195.8 "/>
<polygon class="st7" points="40.5,104.2 33.4,104.2 27.3,126.4 27.3,143.3 33.4,166.1 40.5,166.1 46.2,143.3 46.2,126.4 "/>
<polygon class="st15" points="50.2,104.2 56.3,126.4 46.2,126.4 40.5,104.2 "/>
<rect x="46.2" y="126.4" class="st10" width="10.1" height="16.9"/>
<rect x="56.3" y="126.4" class="st5" width="6.7" height="16.9"/>
<polygon class="st1" points="86.2,91 81.4,87.2 56.3,126.4 63,126.4 "/>
<polygon class="st16" points="133.9,67.5 134.5,72.3 86.2,91 81.4,87.2 "/>
<polygon class="st9" points="126,104.2 134.5,72.3 86.2,91 63,126.4 "/>
<polygon class="st17" points="126,166.1 126,104.2 63,126.4 63,143.3 "/>
<polygon class="st18" points="134.5,199.7 126,166.1 63,143.3 86.2,180.2 "/>
<polygon class="st6" points="81.4,183.5 86.2,180.2 63,143.3 56.3,143.3 "/>
<polygon class="st7" points="132.8,203.7 134.5,199.7 86.2,180.2 81.4,183.5 "/>
<polygon class="st10" points="126,226.3 132.8,203.7 81.4,183.5 69.4,195.8 "/>
<polygon class="st1" points="126,44.9 106.9,33.6 60,69.4 69.4,75.1 "/>
<polygon class="st10" points="133.9,67.5 126,44.9 69.4,75.1 81.4,87.2 "/>
<polygon class="st0" points="209.1,33.6 106.9,33.6 126,44.9 190,44.9 "/>
<polygon class="st1" points="182.1,67.5 133.9,67.5 126,44.9 190,44.9 "/>
<polygon class="st4" points="181.4,72.3 134.5,72.3 133.9,67.5 182.1,67.5 "/>
<polygon class="st5" points="126,104.2 190,104.2 181.4,72.3 134.5,72.3 "/>
<rect x="126" y="104.2" class="st9" width="64" height="61.9"/>
<polygon class="st17" points="181.4,199.7 134.5,199.7 126,166.1 190,166.1 "/>
<polygon class="st19" points="183.1,203.7 132.8,203.7 134.5,199.7 181.4,199.7 "/>
<polygon class="st1" points="190,226.3 126,226.3 132.8,203.7 183.1,203.7 "/>
<polygon class="st0" points="209.1,238 106.9,238 126,226.3 190,226.3 "/>
<polygon class="st1" points="190,249.5 126,249.5 106.9,238 209.1,238 "/>
<polygon class="st10" points="182.1,272.4 133.9,272.4 126,249.5 190,249.5 "/>
<rect x="133.9" y="272.4" class="st4" width="48.2" height="4.6"/>
<polygon class="st7" points="190,295.3 126,295.3 133.9,277 182.1,277 "/>
</svg>
